<svg width="60" height="60" viewBox="0 0 60 60" fill="none" xmlns="http://www.w3.org/2000/svg">
<g clip-path="url(#clip0_798_19)">
<path d="M55.4801 34.5648C55.4001 34.6148 54.9001 34.8498 54.7601 34.9048C53.7451 35.3548 52.8301 35.2848 51.8101 34.6848C51.0751 34.2548 50.3951 33.3048 50.1301 32.9748C49.9201 32.7098 49.6651 32.3648 49.3001 32.0398C48.6201 31.4298 47.7051 31.0298 46.1201 31.0598C45.9928 31.0612 45.8672 31.0303 45.7551 30.9698C44.1551 30.1248 41.3901 29.0898 38.7551 29.2198C38.2301 29.2598 38.1551 28.8798 37.9801 28.4548C37.7006 27.6279 37.3139 26.8412 36.8301 26.1148C36.4101 25.5198 36.2301 25.5148 35.8851 25.4198C35.5051 25.3148 35.0851 25.2698 34.8351 24.8298C34.8051 24.7748 34.6801 24.5398 34.8201 24.3748C35.1701 23.9648 36.1401 23.4048 34.6801 22.5798C33.7901 22.0798 34.1901 21.7548 34.3351 21.6798C34.6406 21.5354 34.986 21.4984 35.3151 21.5748C35.8709 21.7061 36.365 22.0237 36.7151 22.4748C37.1901 23.0298 38.7951 25.6348 39.7701 27.6098C39.7851 27.6348 39.8051 27.7748 39.9851 27.7948C40.2551 27.8198 40.7251 27.8198 40.8201 27.8298C40.9701 27.8398 40.9701 27.7198 40.9551 27.6698C39.5751 23.0798 37.9801 17.3598 35.2151 13.3848C35.1651 13.2698 35.2101 13.1498 35.3851 13.1648C37.8551 13.4148 38.5751 16.9398 40.0251 19.2498C41.8851 22.2248 42.9751 21.0598 43.1551 19.0498C43.2751 17.6498 42.9051 15.8698 41.9301 14.8698C41.7001 14.5848 41.2851 14.2298 41.1151 14.0198C41.0551 13.9398 41.0451 13.8148 41.2101 13.7698C41.3075 13.7531 41.4065 13.7481 41.5051 13.7548C42.6501 13.8398 44.2351 14.7648 44.9051 15.7948C46.2701 17.9098 46.1701 19.0448 45.9801 19.7948C45.6601 21.0748 45.0601 21.8098 45.8051 23.8398C47.2751 27.8498 46.8901 27.0098 46.0551 29.5348C45.9801 29.7248 46.1001 29.8698 46.2651 29.8548C48.1901 29.6748 48.7751 30.1148 49.1901 30.3348C49.2351 30.3598 49.2701 30.3948 49.3001 30.3848C49.3751 30.3598 49.4001 30.2648 49.4101 30.1398C49.5701 29.0598 49.3451 28.5998 49.1001 27.9648C48.9501 27.5898 48.7901 27.1648 48.7351 26.7548C48.6636 26.3398 48.7248 25.9129 48.9101 25.5348C49.2376 24.8498 49.3101 24.0673 49.1201 23.3298C48.6351 21.1898 46.8801 17.6698 45.7601 15.6398C45.4368 15.0264 45.1101 14.4148 44.7801 13.8048C44.7001 13.6548 44.7301 13.4848 44.7951 13.3448L44.9301 13.0048C45.2001 12.3198 45.3401 11.8048 45.4201 11.2048C45.6801 9.28976 45.1751 7.92476 43.7901 6.78476C42.5001 5.72476 40.2101 5.25477 37.1551 5.42477L36.5051 5.46477C33.6351 5.62977 30.3751 5.81476 27.9201 5.61477C25.5451 5.41476 24.1601 5.03976 23.6801 4.46476C23.6036 4.37544 23.547 4.27079 23.5143 4.15782C23.4815 4.04485 23.4733 3.92618 23.4901 3.80976C23.5307 3.52882 23.6279 3.25902 23.7757 3.01667C23.9235 2.77432 24.1189 2.56446 24.3501 2.39976C24.7751 2.07476 25.2751 1.89976 25.6351 1.94976C26.2701 1.97976 26.9751 2.33976 27.7851 2.75476C28.5101 3.12976 29.3351 3.55476 30.2951 3.82476C31.0667 4.05519 31.8703 4.15986 32.6751 4.13476C33.4001 4.10476 34.1151 3.95476 34.7901 3.68476C34.9988 3.6042 35.1943 3.49298 35.3701 3.35476C35.4201 3.31476 35.4351 3.23476 35.3801 3.15476C35.3451 3.11476 35.3051 3.11476 35.1551 3.11476C34.3132 3.10863 33.4746 3.008 32.6551 2.81476C32.0151 2.65476 31.9551 2.50476 31.9651 2.44476C31.9801 2.30476 32.3151 2.17476 32.7001 2.15976C34.5801 2.07476 36.0201 2.17476 36.9751 2.24476C37.3768 2.28643 37.7818 2.29976 38.1901 2.28476C38.2451 2.27976 38.2651 2.24476 38.2701 2.22976C38.2748 2.21195 38.2745 2.19318 38.2692 2.17554C38.2639 2.15789 38.2539 2.14205 38.2401 2.12976C37.5801 1.57976 35.4251 0.754765 32.9651 0.319765C29.0101 -0.380235 26.3601 0.194765 24.8351 0.799765C24.1972 1.04999 23.5967 1.38646 23.0501 1.79976C22.2835 2.39643 21.8601 3.0381 21.7801 3.72476C21.6801 4.63476 22.3401 5.81476 26.0801 6.24976C30.0451 6.70976 33.7501 6.64476 37.0151 6.58976L38.0201 6.56977C40.0901 6.53976 41.8401 7.03976 42.5951 7.87476C43.3176 8.72476 43.5776 9.86976 43.2951 10.9448C43.2185 11.2331 43.1018 11.5031 42.9451 11.7548C42.7101 12.0798 42.4451 12.1748 41.9701 12.0498C40.4401 11.6448 37.7101 10.7498 36.3901 10.2998C35.2101 9.89976 34.2801 9.58976 33.4901 9.39476C31.1501 8.81976 30.4201 9.19976 28.8451 10.1948C28.4651 10.4348 28.0801 10.6948 27.6351 10.9998C26.9851 11.4398 26.2601 11.9398 25.2851 12.5498C24.5718 12.9798 23.8485 13.3914 23.1151 13.7848C22.2851 14.2348 21.4301 14.7098 20.5901 15.2148C17.9001 16.7948 17.4701 18.9148 16.9701 21.3648C16.6201 23.1048 16.2201 25.0748 14.8901 27.0748C14.7451 27.2898 13.5901 28.6898 13.3501 29.0848C12.4351 30.5498 11.9501 31.8148 12.1401 33.9348C12.2901 35.5248 11.7401 36.9048 11.2151 38.2398C10.8051 39.2898 10.4151 40.2898 10.3501 41.3498C10.3001 42.0098 10.3251 42.6248 10.3501 43.2198C10.3851 44.2048 10.4001 45.1898 10.1001 46.0398C9.87013 46.6898 9.28013 47.3398 9.05013 47.9698C8.72615 48.9473 8.55908 49.97 8.55513 50.9998C8.54013 51.8998 7.87513 52.5548 7.17013 53.2498C6.55013 53.8648 5.90013 54.5098 5.66513 55.3498C5.63013 55.4598 5.61513 55.5448 5.57013 55.6098C5.51013 55.7098 5.42013 55.7698 5.29513 55.8598C4.92521 56.1145 4.63417 56.4679 4.45513 56.8798C4.21513 57.5123 4.23263 58.2123 4.50513 58.8298C4.54513 58.8998 4.65013 59.0698 4.81013 59.0898C4.9218 59.0998 5.03013 59.0414 5.13513 58.9148C5.13513 58.9148 5.82513 58.1198 6.09013 57.8848C6.12602 57.851 6.17243 57.8306 6.22159 57.8269C6.27074 57.8233 6.31965 57.8366 6.36013 57.8648C6.44013 57.9198 6.45513 58.0148 6.41013 58.1148C6.38013 58.1748 5.96513 58.9148 5.72513 59.5348L5.72013 59.5548C5.68513 59.6398 5.64513 59.7548 5.70513 59.8398C5.7568 59.9298 5.89846 59.9798 6.13013 59.9898C6.23013 59.9981 6.33013 60.0014 6.43013 59.9998C7.70013 59.9998 8.37013 59.6598 8.71513 59.3648C8.80369 59.2773 8.87196 59.1715 8.91513 59.0548L8.96513 58.9548C9.21513 58.2748 9.38513 57.4848 9.41013 56.8948C9.41013 56.6448 9.48013 56.5748 9.65013 56.4048C10.3201 55.7248 10.3201 54.8348 10.3201 53.9698C10.3201 53.1698 10.3201 52.3498 10.8451 51.7048C12.2701 50.1048 13.0101 48.2448 13.7251 46.4448C14.4651 44.5848 15.2251 42.6598 16.7451 41.0598C17.1301 40.6648 17.5001 40.4498 17.7451 40.4898C17.8701 40.5098 17.9668 40.5881 18.0351 40.7248C18.3601 41.3248 18.2601 42.1298 18.1651 42.9098C18.0601 43.7948 17.9601 44.6248 18.4251 45.1698C18.7401 45.5748 18.8251 46.0048 18.6701 46.4048C18.4701 47.0448 17.8601 48.9848 16.4151 49.8448C16.2261 49.9691 16.0456 50.106 15.8751 50.2548C15.8109 50.3251 15.757 50.4042 15.7151 50.4898C15.6426 50.6505 15.5348 50.7928 15.3998 50.9062C15.2648 51.0196 15.106 51.1011 14.9351 51.1448C14.4029 51.2719 13.9301 51.5771 13.5951 52.0098C13.0451 52.8373 12.8101 53.8348 12.9351 54.8198C12.9601 54.9698 13.0101 55.1648 13.1551 55.3548C13.2418 55.4748 13.3385 55.5431 13.4451 55.5598C13.4894 55.5659 13.5344 55.5629 13.5774 55.5508C13.6204 55.5388 13.6605 55.518 13.6951 55.4898C13.81 55.3896 13.9154 55.2791 14.0101 55.1598C14.2101 54.9348 14.4551 54.6498 14.7601 54.4198C14.8601 54.3448 14.9601 54.3648 15.0201 54.4048C15.0701 54.4448 15.1001 54.5048 15.0801 54.5548C15.0164 54.7072 14.9376 54.8529 14.8451 54.9898C14.6951 55.2248 14.5101 55.5148 14.3651 55.8598C14.3251 55.9381 14.3201 56.0081 14.3501 56.0698C14.3901 56.1698 14.5001 56.2098 14.5251 56.2198C15.4501 56.5148 16.8251 56.1648 17.6001 55.4398C17.7955 55.2493 17.9475 55.0189 18.0459 54.7644C18.1442 54.5099 18.1866 54.2371 18.1701 53.9648C18.1817 53.7517 18.2685 53.5497 18.4151 53.3948C18.9551 52.9298 19.1801 52.2048 19.4151 51.4348L19.5951 50.8798C19.8401 50.0873 20.3126 49.3798 20.9501 48.8498C21.9651 47.8998 22.4251 46.9998 22.7151 46.4498C23.0101 45.8548 23.0751 45.5248 23.2901 45.1798C23.7151 44.5098 25.1451 44.3798 25.6751 44.6948C25.8935 44.8248 25.9418 45.0031 25.8201 45.2298C25.7401 45.3748 24.9851 46.5948 24.6301 47.4298C24.4551 47.8398 24.0601 47.9948 23.8301 48.1298C22.4101 48.9598 22.1501 50.5198 22.1101 51.1598C22.0951 51.3598 22.1151 51.6248 22.2201 51.7748C22.2458 51.8134 22.2789 51.8466 22.3176 51.8724C22.3562 51.8981 22.3996 51.9159 22.4451 51.9248C22.4917 51.9315 22.5392 51.9288 22.5848 51.9168C22.6303 51.9048 22.6729 51.8837 22.7101 51.8548C22.7901 51.7898 23.5601 51.0148 23.6501 50.9348C23.7801 50.8248 23.8901 50.8448 23.9501 50.8948C24.0051 50.9448 24.0301 51.0498 23.9501 51.1698C23.8501 51.3248 23.3151 52.1248 23.3801 52.2998C23.4801 52.5948 23.7851 52.5898 24.0851 52.5898C26.5201 52.3898 27.3801 50.6548 27.3801 50.6548C27.4401 50.5548 27.5101 50.4198 27.4701 50.0598C27.4001 49.4098 27.2501 47.1598 28.5501 45.7598C28.9351 45.3298 29.1651 45.6198 29.2501 45.8098C29.4101 46.1598 29.6401 46.7548 29.7751 47.0548C30.0551 47.6898 30.2451 48.1548 30.5751 48.7848C31.1151 49.8448 31.9401 49.9898 32.9551 49.8648C34.2701 49.6998 35.1751 49.8048 36.0551 49.8898C36.8051 49.9548 37.2201 50.0048 37.7751 49.4998C38.0751 49.2248 38.6501 48.7248 39.0351 48.1748C39.2851 47.8298 39.3551 47.6098 39.2951 47.0748C39.1151 44.3698 40.5201 42.0198 43.0551 40.7898C43.4351 40.6348 43.8551 40.6798 44.1151 41.0298C44.6851 41.8698 46.0051 44.0298 46.0051 45.8648C45.9866 46.066 45.9377 46.2632 45.8601 46.4498C45.6801 46.9498 45.4601 47.5748 45.8701 48.4248C45.9001 49.1598 45.6251 49.7348 45.3851 50.2448C45.0401 50.9648 44.7701 51.5348 45.7101 52.0948C46.0651 52.2948 46.4401 52.4448 46.8351 52.5448C46.8702 52.5419 46.9043 52.5317 46.9351 52.5148C46.9506 52.5057 46.964 52.4935 46.9744 52.4788C46.9847 52.4641 46.9918 52.4474 46.9951 52.4298C47.0201 52.2148 47.0451 51.4798 47.0851 51.3098C47.1001 51.2398 47.1351 51.1598 47.2151 51.1498C47.2901 51.1498 47.3651 51.2048 47.3851 51.2648C47.4601 51.4448 47.6501 52.1648 47.7051 52.2748C47.7485 52.3748 47.8051 52.4381 47.8751 52.4648C48.2501 52.5698 48.7651 51.9248 48.9551 51.5898C49.2851 50.9048 49.1501 49.8898 48.6101 48.9998C48.5445 48.8788 48.5133 48.7422 48.5201 48.6048C48.6811 48.06 48.6457 47.4761 48.4201 46.9548C48.313 46.6778 48.2392 46.3891 48.2001 46.0948C48.0501 44.8248 48.8351 40.7948 48.9051 40.3848C49.0401 39.6348 49.1501 39.0998 49.1951 38.5498C49.2272 37.982 49.033 37.4247 48.6551 36.9998C48.3151 36.6348 47.9051 36.2998 47.5051 35.9798C47.1765 35.7208 46.8611 35.4454 46.5601 35.1548C46.2341 34.8027 46.0337 34.3526 45.9901 33.8748C45.9901 33.8248 46.0001 33.7914 46.0201 33.7748L46.0851 33.7598C46.6851 33.8048 47.1701 34.1998 47.7751 34.7098C48.3251 35.1598 48.9401 35.6698 49.8001 36.0498C51.5101 36.8098 53.1301 36.6998 54.7601 35.7098C55.4501 35.2198 55.6651 34.7948 55.7001 34.7398C55.7451 34.6648 55.6801 34.4498 55.4801 34.5648ZM17.6351 27.8098C17.7351 27.0198 18.3151 26.1848 18.5701 25.1998C18.9351 24.0898 19.0351 22.1498 19.2351 20.6098C19.3351 19.8398 19.6251 19.5198 20.1801 19.4498C20.5451 19.4148 20.9301 19.7348 21.1251 20.8198C21.8051 25.2548 23.1351 25.8698 23.9101 27.0448L23.9501 27.1098C24.1501 27.4798 24.2101 27.8198 23.9001 28.0698C23.7201 28.2198 23.1101 28.4348 22.0801 27.8098C20.8401 27.0648 20.6551 26.2598 18.6001 27.9048C18.6001 27.9048 18.3251 28.1148 18.0651 28.1748C17.8401 28.2248 17.5951 28.1398 17.6351 27.8098ZM28.3851 44.0848C28.3101 44.1348 28.2251 44.0998 28.1051 44.0248C27.2901 43.4998 25.0301 43.0898 23.1251 43.8548C21.1601 44.6398 19.3651 45.7548 19.2451 43.8098C19.2201 42.0898 19.5851 41.3398 18.9851 40.3198L18.9351 40.2398C18.8851 40.1598 18.9451 40.1398 18.9651 40.1398C21.7201 39.9248 22.4601 39.0648 22.6301 38.7648C22.6651 38.6948 22.6201 38.6248 22.5501 38.6148C21.9151 38.5448 18.7551 38.4498 17.4901 38.6348C15.2551 38.9598 13.7551 42.3198 13.4651 42.6398C13.1301 43.0048 12.7051 42.7248 12.7051 42.3898C12.7051 41.8298 13.0401 39.1048 13.2551 38.1598C13.6051 36.6648 14.0851 35.5598 15.5451 35.3298C16.5651 35.1748 19.0751 34.9098 18.9051 34.2298C18.7878 33.822 18.7141 33.403 18.6851 32.9798C18.6851 32.6498 18.8551 32.5798 19.1901 32.6598C19.4401 32.7098 19.7701 32.8598 20.2001 32.9598C23.3501 33.7048 24.9701 33.1098 26.8501 32.2748L27.6451 31.9148C27.7235 31.873 27.813 31.8571 27.9009 31.8694C27.9888 31.8817 28.0706 31.9215 28.1345 31.9832C28.1983 32.0448 28.241 32.1251 28.2564 32.2125C28.2718 32.3 28.2591 32.39 28.2201 32.4698C28.1201 32.6848 27.9851 32.7848 27.6951 33.0598C27.0751 33.6598 24.7601 35.5598 26.1551 38.7698C27.2401 41.2698 27.5551 41.9198 28.3301 43.6248C28.4551 43.9048 28.4751 44.0248 28.3801 44.0848H28.3851ZM34.2501 48.4148C34.0951 48.6548 33.8551 48.8248 33.4001 48.8248C32.8301 48.8248 32.4301 48.6548 32.1901 48.3998C31.9832 48.1701 31.8354 47.8934 31.7595 47.5937C31.6837 47.2939 31.6822 46.9802 31.7551 46.6798C31.8301 46.3798 32.0051 46.1848 32.2051 46.1298C32.2851 46.0998 32.3301 46.1098 32.3751 46.1648C32.4601 46.2998 32.7651 46.7848 32.8351 46.8848C32.9273 47.0048 33.0499 47.098 33.1901 47.1548C33.4201 47.2498 33.7151 47.3298 33.8701 47.3998C34.3451 47.6048 34.4551 48.0948 34.2501 48.4148ZM43.3451 39.5648C43.2851 39.6648 43.2301 39.6798 43.1501 39.7148C40.2951 40.7948 38.0201 43.7148 38.4351 47.2148C38.4402 47.3271 38.4229 47.4392 38.3842 47.5448C38.3456 47.6504 38.2864 47.7472 38.2101 47.8298C38.2101 47.8298 37.6101 48.4398 37.2351 48.6998C37.1051 48.7898 36.9601 48.8598 36.6251 48.8398L35.3501 48.7598C35.1501 48.7248 35.2351 48.5498 35.2501 48.5098C35.2671 48.4693 35.2805 48.4275 35.2901 48.3848C35.4001 47.8598 35.3201 47.1248 34.5801 46.8498C34.4751 46.7898 34.5401 46.6898 34.5551 46.6598C34.8701 45.8748 35.2701 44.9098 35.5851 43.5548C35.8101 42.7723 35.6426 41.9298 35.1351 41.2898L34.6851 40.6898C34.5551 40.5448 34.5901 40.3898 34.7701 40.3298L35.4051 40.1648C35.5551 40.1148 35.5451 39.8798 35.3951 39.8398L35.0701 39.7398C34.8059 39.6161 34.5835 39.418 34.4301 39.1698C34.3085 39.0008 34.2234 38.8084 34.1801 38.6048L34.1451 38.4198C34.1401 38.3248 33.9951 38.3198 33.9251 38.3898C33.6744 38.6273 33.5102 38.9418 33.4586 39.2833C33.4069 39.6248 33.4708 39.9737 33.6401 40.2748C34.1551 41.1348 34.1351 41.0498 34.5901 41.6998C34.7401 41.9098 34.8351 42.0848 34.8851 42.2998C34.9576 42.8248 34.9051 43.3623 34.7351 43.8648L34.2151 45.4448C33.9001 46.1448 33.5501 45.9798 33.3551 45.8448C33.0951 45.6748 32.8551 45.2348 32.7301 44.7648C32.7301 44.7648 32.3701 43.4498 32.3801 41.6948C32.3601 41.4848 32.2151 41.1398 31.7551 41.4448L30.5301 42.4548C30.3601 42.5498 30.0601 42.4998 30.1201 42.0998C30.1201 42.0998 31.0001 38.1748 31.9451 35.9648C32.6551 34.1648 31.8651 33.1498 30.9251 32.0348C29.3801 30.0648 29.0351 27.4198 32.6251 28.8698C33.5901 29.3098 33.9351 28.7398 35.1251 28.6348C35.9751 28.5648 36.2551 28.9098 36.3251 29.0548C36.3796 29.1643 36.4135 29.283 36.4251 29.4048C36.4251 29.4348 36.4151 29.4548 36.3751 29.4548C34.3651 29.5748 31.9651 31.2448 33.8251 33.8698C35.6401 36.4398 40.6501 37.2998 42.8901 34.8498C42.9201 34.8198 42.9251 34.7448 42.8801 34.7098C42.8655 34.6948 42.8465 34.6848 42.8259 34.6812C42.8052 34.6777 42.784 34.6806 42.7651 34.6898C42.3158 34.8676 41.8503 35.0015 41.3751 35.0898C40.3051 35.2648 38.0401 35.1398 36.9751 33.9148C36.3601 33.2148 36.3751 32.4098 37.4101 32.2848C37.9851 32.2398 38.2701 32.3448 38.5201 32.3498C39.1651 32.3398 39.2951 31.6998 39.1651 31.3998C38.997 31.0431 38.7468 30.7313 38.4351 30.4898C38.1001 30.2548 38.2851 30.0048 38.5001 30.0098C40.5701 30.1298 42.5501 30.4898 43.3001 32.9748C43.3301 33.0698 43.3801 33.3848 43.4601 33.4998C43.6201 33.7398 43.8951 33.9198 44.2051 34.1848C44.9551 34.8398 45.6301 36.0098 43.3451 39.5648ZM46.0351 38.0248C46.4001 37.2648 46.8951 37.7748 47.1351 38.6098C47.4351 39.6748 47.4751 41.3798 47.3451 42.2598C47.1851 43.4098 46.6451 43.1798 46.3551 42.7698C45.8951 42.1248 45.4051 41.2698 45.0551 40.6798L45.0301 40.6248C44.8701 40.2898 44.8451 40.0248 45.0151 39.7848C45.1851 39.5198 45.8651 38.3748 46.0351 38.0248Z" fill="#F8F8F8"/>
</g>
<defs>
<clipPath id="clip0_798_19">
<rect width="60" height="60" fill="white"/>
</clipPath>
</defs>
</svg>
